<svg xmlns="http://www.w3.org/2000/svg" width="20" height="20" viewBox="0 0 20 20" fill="none">
  <g clip-path="url(#clip0_2723_16780)">
    <path d="M15 6.66683H14.1667V5.00016C14.1667 2.70016 12.3 0.833496 10 0.833496C7.7 0.833496 5.83334 2.70016 5.83334 5.00016V6.66683H5C4.08334 6.66683 3.33334 7.41683 3.33334 8.3335V16.6668C3.33334 17.5835 4.08334 18.3335 5 18.3335H15C15.9167 18.3335 16.6667 17.5835 16.6667 16.6668V8.3335C16.6667 7.41683 15.9167 6.66683 15 6.66683ZM7.5 5.00016C7.5 3.61683 8.61667 2.50016 10 2.50016C11.3833 2.50016 12.5 3.61683 12.5 5.00016V6.66683H7.5V5.00016ZM15 16.6668H5V8.3335H15V16.6668ZM10 14.1668C10.9167 14.1668 11.6667 13.4168 11.6667 12.5002C11.6667 11.5835 10.9167 10.8335 10 10.8335C9.08334 10.8335 8.33334 11.5835 8.33334 12.5002C8.33334 13.4168 9.08334 14.1668 10 14.1668Z" fill="#262626"/>
  </g>
  <defs>
    <clipPath id="clip0_2723_16780">
      <rect width="20" height="20" fill="white"/>
    </clipPath>
  </defs>
</svg>