<svg xmlns="http://www.w3.org/2000/svg" width="22" height="17" viewBox="0 0 22 17" fill="none">
  <path d="M15.6699 9.62744C17.0399 10.5574 17.9999 11.8174 17.9999 13.4974V16.4974H21.9999V13.4974C21.9999 11.3174 18.4299 10.0274 15.6699 9.62744Z" fill="currentColor"/>
  <path d="M13.9999 8.49756C16.2099 8.49756 17.9999 6.70756 17.9999 4.49756C17.9999 2.28756 16.2099 0.497559 13.9999 0.497559C13.5299 0.497559 13.0899 0.597558 12.6699 0.737558C13.4999 1.76756 13.9999 3.07756 13.9999 4.49756C13.9999 5.91756 13.4999 7.22756 12.6699 8.25756C13.0899 8.39756 13.5299 8.49756 13.9999 8.49756Z" fill="currentColor"/>
  <path d="M8 8.49756C10.21 8.49756 12 6.70756 12 4.49756C12 2.28756 10.21 0.497559 8 0.497559C5.79 0.497559 4 2.28756 4 4.49756C4 6.70756 5.79 8.49756 8 8.49756ZM8 2.49756C9.1 2.49756 10 3.39756 10 4.49756C10 5.59756 9.1 6.49756 8 6.49756C6.9 6.49756 6 5.59756 6 4.49756C6 3.39756 6.9 2.49756 8 2.49756Z" fill="currentColor"/>
  <path d="M8 9.49756C5.33 9.49756 0 10.8376 0 13.4976V16.4976H16V13.4976C16 10.8376 10.67 9.49756 8 9.49756ZM14 14.4976H2V13.5076C2.2 12.7876 5.3 11.4976 8 11.4976C10.7 11.4976 13.8 12.7876 14 13.4976V14.4976Z" fill="currentColor"/>
</svg>